# xmcd
#
# Track frame offsets:
#	150
#	18619
#	30898
#	46397
#	61929
#	76800
#	91644
#	102115
#	117096
#	128797
#	141740
#	154990
#	173917
#	188362
#	202475
#	214241
#	230792
#	243540
#	256013
#	271771
#	286738
#	297711
#
# Disc length: 4151 seconds
#
# Revision: 0
# Processed by: cddbd v1.5.1PL2 Copyright (c) Steve Scherf et al.
# Submitted via: SynApp - FreeCDDB Version: 2.0
#
DISCID=3d103516
DTITLE=Sample - Ady
DYEAR=2001
DGENRE=Country
TTITLE0=Before The Ink is Dry  - Franklin Haynes
TTITLE1=Daddy On The Radio   - Brian Sklar
TTITLE2=Dance The Night Away   - Jody Jenkins
TTITLE3=Goin Back To Texas   - Package Music
TTITLE4=Forever    - Forster Martin Band
TTITLE5=Give Me A Good Country Song  - Benny Berry
TTITLE6=Dance Togehter  Moore
TTITLE7=Goodnight Waltz  -Franky Mc Whorter
TTITLE8=Good Blood  -Vernon and Kelso
TTITLE9=Hells Froze Up    - Michael Apgidpian
TTITLE10=I Didn`t Come Thys Far   - Sharly Shearer
TTITLE11=I Can`t See You Without Me  -Rooster Quantell
TTITLE12=I Just Destroyed The World  - Charly Shearer
TTITLE13=I Like Cowboy Boots   - George Nathaniel
TTITLE14=I`LL Get By    - Benny Berry
TTITLE15=If That`s the Way You Want It   - Hank Bracke
TTITLE16=Little Did I Know  - Kip Sonnier
TTITLE17=Smooth Talkin Lines   -Jennifer Bruce
TTITLE18=Not Turning Back   - Bill Mullis
TTITLE19=My Missis Never Misses A Thing  -Tim Stevens
TTITLE20=Texas Fiddles  - Bill Green
TTITLE21=Texas two Step  -AMP3 Artist
EXTD=
EXTT0=
EXTT1=
EXTT2=
EXTT3=
EXTT4=
EXTT5=
EXTT6=
EXTT7=
EXTT8=
EXTT9=
EXTT10=
EXTT11=
EXTT12=
EXTT13=
EXTT14=
EXTT15=
EXTT16=
EXTT17=
EXTT18=
EXTT19=
EXTT20=
EXTT21=
PLAYORDER=
